# xmcd
#
# Track frame offsets: 
#        150
#        13882
#        26517
#        43087
#        53212
#        71395
#        91800
#        108167
#        117000
#        129617
#        147067
#        159470
#        174755
#        189037
#        204859
#        222412
#
# Disc length: 3162 seconds
#
# Revision: 0
# Processed by: cddbd v1.5.2PL0 Copyright (c) Steve Scherf et al.
# Submitted via: ExactAudioCopy v0.95a5
#
DISCID=cb0c5810
DTITLE=The International Cajun Trio - Rendez-Vous
DYEAR=2008
DGENRE=Blues
TTITLE0=Ca Me Fait Du Mal
TTITLE1=Alligator Sam
TTITLE2=Can't Be Satisfied
TTITLE3=Acadien Two Step
TTITLE4=Les Beaux Yeux De La Louisiane
TTITLE5=Man From Mississipi
TTITLE6=Cherokee Waltz
TTITLE7=Black Bottom Strut
TTITLE8=Dirty Feet
TTITLE9=Little Red Rooster
TTITLE10=Madeleine
TTITLE11=You're No Good
TTITLE12=Catfish John
TTITLE13=Railroad Song
TTITLE14=Mississipi You're On My Mind
TTITLE15=The Lahnstein-Blues-Festival
EXTD=
EXTT0=
EXTT1=
EXTT2=
EXTT3=
EXTT4=
EXTT5=
EXTT6=
EXTT7=
EXTT8=
EXTT9=
EXTT10=
EXTT11=
EXTT12=
EXTT13=
EXTT14=
EXTT15=
PLAYORDER=
